<?xml version="1.0" encoding="UTF-8" standalone="no"?>
<svg
   xmlns:dc="http://purl.org/dc/elements/1.1/"
   xmlns:cc="http://creativecommons.org/ns#"
   xmlns:rdf="http://www.w3.org/1999/02/22-rdf-syntax-ns#"
   xmlns:svg="http://www.w3.org/2000/svg"
   xmlns="http://www.w3.org/2000/svg"
   xmlns:sodipodi="http://sodipodi.sourceforge.net/DTD/sodipodi-0.dtd"
   xmlns:inkscape="http://www.inkscape.org/namespaces/inkscape"
   width="512"
   height="175"
   viewBox="0 0 512 174.99999"
   id="svg2"
   version="1.1"
   inkscape:version="0.91 r13725"
   sodipodi:docname="logo.svg">
  <sodipodi:namedview
     pagecolor="#ffffff"
     bordercolor="#666666"
     borderopacity="1"
     objecttolerance="10"
     gridtolerance="10"
     guidetolerance="10"
     inkscape:pageopacity="0"
     inkscape:pageshadow="2"
     inkscape:window-width="1600"
     inkscape:window-height="834"
     id="namedview22"
     showgrid="false"
     inkscape:zoom="0.77734377"
     inkscape:cx="24.753711"
     inkscape:cy="95.085189"
     inkscape:window-x="0"
     inkscape:window-y="27"
     inkscape:window-maximized="1"
     inkscape:current-layer="svg2" />
  <title
     id="title4390">SXAPI logo</title>
  <defs
     id="defs4" />
  <metadata
     id="metadata7">
    <rdf:RDF>
      <cc:Work
         rdf:about="">
        <dc:format>image/svg+xml</dc:format>
        <dc:type
           rdf:resource="http://purl.org/dc/dcmitype/StillImage" />
        <dc:title>SXAPI logo</dc:title>
        <cc:license
           rdf:resource="http://creativecommons.org/licenses/by-sa/3.0/" />
        <dc:creator>
          <cc:Agent>
            <dc:title>startx</dc:title>
          </cc:Agent>
        </dc:creator>
      </cc:Work>
      <cc:License
         rdf:about="http://creativecommons.org/licenses/by-sa/3.0/">
        <cc:permits
           rdf:resource="http://creativecommons.org/ns#Reproduction" />
        <cc:permits
           rdf:resource="http://creativecommons.org/ns#Distribution" />
        <cc:requires
           rdf:resource="http://creativecommons.org/ns#Notice" />
        <cc:requires
           rdf:resource="http://creativecommons.org/ns#Attribution" />
        <cc:permits
           rdf:resource="http://creativecommons.org/ns#DerivativeWorks" />
        <cc:requires
           rdf:resource="http://creativecommons.org/ns#ShareAlike" />
      </cc:License>
    </rdf:RDF>
  </metadata>
  <g
     style="fill:#0c6f5e;stroke:none;fill-opacity:1"
     transform="matrix(6.7316967e-4,0.01179525,0.01179525,-6.7316967e-4,388.01562,26.720677)"
     id="g6">
    <path
       inkscape:connector-curvature="0"
       d="M 6045,9414 C 5443,9379 5119,9339 4629,9240 3010,8912 1430,8071 290,6930 120,6760 78,6701 33,6565 10,6494 7,6469 7,6350 c 0,-119 3,-144 26,-215 38,-115 91,-198 182,-290 137,-138 304,-207 498,-207 112,1 164,10 261,46 103,39 164,85 354,263 447,421 822,707 1303,996 937,563 1941,892 3081,1009 293,30 1029,33 1323,5 1148,-109 2188,-445 3134,-1014 482,-290 858,-578 1306,-999 188,-177 247,-221 353,-260 95,-36 147,-45 259,-46 194,0 361,69 498,207 91,92 144,175 182,290 23,71 26,96 26,215 0,119 -3,144 -26,215 -45,136 -87,195 -257,365 -603,604 -1378,1158 -2179,1559 -1030,516 -2088,810 -3266,906 -177,15 -875,28 -1020,19 z"
       id="path8"
       style="fill:#0c6f5e;fill-opacity:1" />
    <path
       inkscape:connector-curvature="0"
       d="M 5945,6800 C 5540,6767 5135,6699 4768,6600 3765,6329 2803,5779 2089,5070 c -154,-152 -170,-172 -207,-250 -183,-381 4,-819 403,-946 169,-54 333,-40 501,41 78,38 109,61 220,166 418,395 777,647 1249,879 1233,606 2656,661 3945,153 423,-167 862,-421 1217,-705 150,-120 162,-131 369,-323 207,-191 316,-240 534,-239 98,1 127,5 195,28 119,41 181,80 275,175 137,138 194,276 194,471 0,121 -22,208 -82,325 -76,147 -516,546 -917,830 -877,623 -1860,990 -2970,1111 -174,19 -890,28 -1070,14 z"
       id="path10"
       style="fill:#0c6f5e;fill-opacity:1" />
    <path
       inkscape:connector-curvature="0"
       d="m 6065,4360 c -784,-76 -1486,-366 -2082,-861 -159,-132 -319,-296 -360,-369 -212,-372 -32,-843 373,-976 80,-26 102,-29 214,-29 111,1 134,4 205,29 112,39 179,82 302,197 408,380 885,601 1420,659 166,18 515,8 668,-19 389,-69 740,-219 1041,-444 54,-40 159,-128 232,-194 189,-171 291,-220 477,-230 275,-14 519,128 640,372 46,93 68,190 68,300 0,111 -21,194 -74,305 -37,75 -57,100 -168,210 -570,565 -1315,922 -2164,1036 -132,18 -656,27 -792,14 z"
       id="path12"
       style="fill:#0c6f5e;fill-opacity:1" />
    <path
       inkscape:connector-curvature="0"
       d="M 6281,1650 C 6008,1612 5773,1444 5649,1199 5462,826 5587,362 5935,137 6086,40 6204,6 6390,6 c 160,0 244,19 379,89 206,107 347,280 417,512 36,119 38,305 5,428 -65,242 -236,446 -458,547 -133,60 -313,87 -452,68 z"
       id="path14"
       style="fill:#ffffff;fill-opacity:1" />
  </g>
  <text
     xml:space="preserve"
     style="font-style:normal;font-weight:normal;font-size:66.26560211px;line-height:150%;font-family:Sans;letter-spacing:0px;word-spacing:0.83305329px;fill:#0c6f5e;fill-opacity:1;stroke:#0c6f5e;stroke-width:1px;stroke-linecap:butt;stroke-linejoin:miter;stroke-opacity:1;"
     x="54.948269"
     y="52.738083"
     id="text5338"
     sodipodi:linespacing="150%"
     transform="matrix(0.99999722,-0.00235627,0.00235627,0.99999722,0,0)"><tspan
       sodipodi:role="line"
       id="tspan5340"
       x="54.948269"
       y="52.738083"
       style="font-style:italic;font-variant:normal;font-weight:normal;font-stretch:normal;font-family:'URW Bookman L';-inkscape-font-specification:'URW Bookman L Italic';fill:#0c6f5e;fill-opacity:1;stroke:#0c6f5e;stroke-opacity:1;">LiveDraw</tspan></text>
  <g
     style="fill:#1735a7;fill-opacity:1"
     id="g4143"
     transform="matrix(-0.06421964,-0.09789013,0.09789013,-0.06421964,313.80478,196.29604)">
    <g
       style="fill:#1735a7;fill-opacity:1"
       id="g4145"
       transform="matrix(0.1,0,0,-0.1,0,511)">
      <path
         style="fill:#1735a7;fill-opacity:1"
         sodipodi:nodetypes="ccccsccccc"
         id="path4147"
         d="m 18537.04,21601.848 c -709.721,-130.934 -1285.334,-520.839 -1711.801,-1154.4 C 16697.34,20255.531 2607.377,-1341.6862 2534.2526,-1463.5143 c -30.4915,-48.7036 -64.0184,-4111.7993 -36.5622,-4224.5213 27.4561,-106.6513 124.8634,-197.9878 216.1999,-197.9878 106.6512,0 3825.5104,1696.4863 3892.5641,1775.6815 76.1597,91.3365 14239.2476,21807.4839 14397.6376,22081.4939 216.2,371.555 295.533,657.844 313.745,1123.908 21.386,618.246 -103.478,1053.819 -435.573,1519.884 -514.631,721.862 -1507.605,1139.223 -2345.224,986.904 z"
         inkscape:connector-curvature="0" />
    </g>
  </g>
  <g
     transform="matrix(-0.06421964,-0.09789013,0.09789013,-0.06421964,313.80478,176.29604)"
     id="g87"
     style="fill:#000e44;fill-opacity:1">
    <g
       transform="matrix(0.1,0,0,-0.1,0,511)"
       id="g89"
       style="fill:#000e44;fill-opacity:1">
      <path
         inkscape:connector-curvature="0"
         d="m 17108.679,22538.907 c -709.721,-130.934 -1285.334,-520.839 -1711.801,-1154.4 C 15268.979,21192.59 1179.0163,-404.6274 1105.8919,-526.45543 c -30.4915,-48.70361 -64.0184,-4111.79937 -36.5622,-4224.52137 27.4561,-106.6513 124.8634,-197.9878 216.1999,-197.9878 106.6512,0 3825.5104,1696.4863 3892.5641,1775.6815 76.1597,91.3365 14239.2473,21807.4841 14397.6373,22081.4941 216.2,371.555 295.533,657.844 313.745,1123.908 21.386,618.246 -103.478,1053.819 -435.573,1519.884 -514.631,721.862 -1507.605,1139.223 -2345.224,986.904 z m 822.442,-499.592 c 353.343,-73.124 633.561,-231.514 913.779,-514.768 615.212,-618.246 770.567,-1498.499 395.977,-2241.746 l -106.515,-213.165 -207.093,130.934 c -697.441,450.75 -3070.26,1979.74 -3079.366,1988.984 -6.07,3.036 48.704,85.266 121.828,179.638 146.249,188.882 414.188,405.082 645.703,523.874 356.24,179.776 880.114,237.724 1315.687,146.249 z m -1924.965,-1522.919 c 210.129,-133.97 383.834,-252.762 386.869,-261.868 0,-9.106 -764.495,-1200.068 -1699.522,-2649.863 C 13758.339,16157.905 3509.0635,506.11644 3143.5795,-63.426141 2564.9308,-961.8906 2467.3856,-1099.0334 2418.682,-1074.6126 c -27.4561,15.1768 -216.1999,133.96947 -414.1877,261.86821 l -362.4487,234.54999 2150.2715,3335.163 C 4977.2085,4593.633 15229.381,20245.422 15351.209,20434.303 c 121.828,191.917 231.515,341.202 246.692,334.993 12.279,-6.071 194.952,-118.793 408.255,-252.9 z m 1215.245,-782.707 c 213.164,-140.04 389.904,-265.042 389.904,-277.183 0,-21.386 -13849.3414,-21274.3661 -13901.0803,-21335.3491 -15.1768,-18.2121 -724.8975,414.1877 -807.128,493.3828 -24.4208,24.2828 13873.7623,21368.8763 13910.3253,21368.8763 8.968,0 191.641,-112.722 407.979,-249.727 z m 1200.068,-773.601 c 197.987,-127.899 377.625,-246.692 399.01,-268.077 27.318,-24.421 -109.686,-255.798 -566.507,-962.483 C 17925.051,17217.795 7684.8812,1584.3566 6722.5364,91.790768 5763.089,-1400.6371 4962.0317,-2634.2321 4943.8196,-2652.4442 c -24.4208,-27.4561 -137.0048,30.4915 -429.5024,219.2353 -216.1999,143.0755 -392.9402,274.1475 -386.8695,295.395 15.1767,51.739 13891.9743,21326.2429 13913.3603,21329.2779 9.106,0.138 179.638,-103.478 380.661,-231.376 z M 3049.2076,-2070.6222 c 776.6364,-502.6269 1407.1619,-922.8853 1395.0205,-935.0267 -24.4208,-24.4208 -2013.2667,-935.0266 -2065.0057,-947.1681 -21.2474,-3.0353 -216.1999,109.6867 -435.5731,249.7268 l -399.011,255.7975 0,1169.5766 c 0,996.0097 6.0708,1166.5413 42.633,1145.1559 24.2828,-12.1414 682.1265,-435.5732 1461.9363,-938.062 z"
         id="path91"
         sodipodi:nodetypes="ccccsccccccccccccccccccccccccccsccscccccccccccscccscc"
         style="fill:#000e44;fill-opacity:1" />
    </g>
  </g>
</svg>
